<svg xmlns="http://www.w3.org/2000/svg" viewBox="0 0 110 110" id="graphic-tablet"><g data-name="16. Graphic Tablet"><circle cx="59" cy="59" r="50" fill="#e7efff"></circle><circle cx="4" cy="9" r="3" fill="#ff4d69"></circle><circle cx="100" cy="4" r="3" fill="#00c99f"></circle><circle cx="106" cy="101" r="3" fill="#ffa100"></circle><circle cx="15" cy="106" r="3" fill="#00c99f"></circle><path fill="#a5bced" d="M96,25.38V78a6,6,0,0,1-6,6H12a6,6,0,0,1-6-6V24a6,6,0,0,1,6-6H87.61A49.53,49.53,0,0,1,96,25.38Z"></path><rect width="72" height="54" x="12" y="24" fill="#fff" rx="2"></rect><path fill="#ffa100" d="M80,12V26a2,2,0,0,1-1.13,1.79C66.05,34.21,66.66,34,66,34s.16.31-12.9-6.22A2,2,0,0,1,52,26V12a2,2,0,0,1,1.13-1.79l12-6a1.92,1.92,0,0,1,1.82,0l12,6A2,2,0,0,1,80,12Z"></path><path fill="#fff" d="M60 15a1 1 0 00-1 1v2.7l-2.17-3.25A1 1 0 0055 16v6a1 1 0 002 0V19.3l2.17 3.25A1 1 0 0061 22V16A1 1 0 0060 15zM68 15H64a1 1 0 00-1 1v6a1 1 0 002 0V21h2a1 1 0 000-2H65V17h3a1 1 0 000-2zM76 15H72a1 1 0 000 2h1v5a1 1 0 002 0V17h1a1 1 0 000-2z"></path><path fill="#323fd4" d="M82,78a2,2,0,0,0,2-2V58S79,48,63,48C42,48,42,67,12,67v9a2,2,0,0,0,2,2Z"></path><path fill="#4e6aff" d="M14,78a2,2,0,0,1-2-2V63s6-10,20-10S69,68,84,68v8a2,2,0,0,1-2,2Z"></path><path fill="#8fa2ff" d="M26,78S38,66,54,66A27.13,27.13,0,0,1,77,78Z"></path><circle cx="34" cy="38" r="8" fill="#8fa2ff"></circle><circle cx="90" cy="51" r="3" fill="#7f96d1"></circle><rect width="6" height="4" x="87" y="41" fill="#7f96d1" rx="1"></rect><rect width="6" height="4" x="87" y="34" fill="#7f96d1" rx="1"></rect><rect width="6" height="4" x="87" y="27" fill="#7f96d1" rx="1"></rect><rect width="6" height="4" x="87" y="71" fill="#7f96d1" rx="1"></rect><rect width="6" height="4" x="87" y="64" fill="#7f96d1" rx="1"></rect><rect width="6" height="4" x="87" y="57" fill="#7f96d1" rx="1"></rect><path fill="#4e6aff" d="M96.9,91.6a50.07,50.07,0,0,1-12.29,10.34L62,103.36a4,4,0,0,0-2.74,1.31C57.86,106.16,56.33,106,55,106V87c1.48,0,2.85-.15,4.19,1.19a4,4,0,0,0,2.65,1.22Z"></path><path fill="#8fa2ff" d="M55,106,43.28,98.79a2.69,2.69,0,0,1,0-4.58L55,87Z"></path><path fill="#323fd4" d="M63.14 95a2 2 0 001.42 3.42h7.07a2 2 0 000-4H64.56A2 2 0 0063.14 95zM46 92.54v7.92l-2.72-1.67a2.69 2.69 0 010-4.58z"></path></g></svg>